<svg width="302" height="199" viewBox="0 0 302 199" fill="none" xmlns="http://www.w3.org/2000/svg">
<ellipse cx="153.5" cy="175.5" rx="139.5" ry="23.5" fill="#001D69" fill-opacity="0.05"/>
<path d="M58.43 31.2497H250.64C254.454 31.2497 258.111 32.7647 260.808 35.4615C263.505 38.1582 265.02 41.8159 265.02 45.6297V163.02H44.02V45.6297C44.02 43.7387 44.393 41.8664 45.1175 40.1197C45.842 38.3731 46.9039 36.7866 48.2424 35.4509C49.5809 34.1152 51.1697 33.0566 52.9178 32.3357C54.666 31.6148 56.5391 31.2457 58.43 31.2497V31.2497Z" fill="white"/>
<path d="M265.02 163.47H44.0199C43.9006 163.47 43.7861 163.422 43.7017 163.338C43.6174 163.253 43.5699 163.139 43.5699 163.02V45.6297C43.5726 41.6947 45.1369 37.9216 47.9194 35.1391C50.7019 32.3567 54.4749 30.7923 58.4099 30.7897H250.64C254.574 30.795 258.346 32.3602 261.128 35.1421C263.909 37.9239 265.475 41.6955 265.48 45.6297V163.02C265.477 163.14 265.428 163.254 265.342 163.339C265.256 163.423 265.14 163.47 265.02 163.47V163.47ZM44.4999 162.56H264.56V45.6297C264.557 41.9387 263.09 38.3996 260.48 35.7897C257.87 33.1797 254.331 31.7123 250.64 31.7097H58.4299C54.738 31.7123 51.1979 33.1794 48.5864 35.7891C45.9749 38.3987 44.5052 41.9378 44.4999 45.6297V162.56Z" fill="#231F20"/>
<path d="M251.21 43.0597H57.86V163.02H251.21V43.0597Z" fill="#E1E1E1"/>
<path d="M283.44 163.53H25.62C25.5426 163.552 25.4611 163.556 25.382 163.541C25.3029 163.526 25.2283 163.493 25.164 163.445C25.0997 163.396 25.0476 163.334 25.0117 163.262C24.9758 163.19 24.9572 163.11 24.9572 163.03C24.9572 162.949 24.9758 162.87 25.0117 162.798C25.0476 162.726 25.0997 162.663 25.164 162.615C25.2283 162.566 25.3029 162.533 25.382 162.519C25.4611 162.504 25.5426 162.508 25.62 162.53H283.44C283.517 162.508 283.599 162.504 283.678 162.519C283.757 162.533 283.832 162.566 283.896 162.615C283.96 162.663 284.012 162.726 284.048 162.798C284.084 162.87 284.103 162.949 284.103 163.03C284.103 163.11 284.084 163.19 284.048 163.262C284.012 163.334 283.96 163.396 283.896 163.445C283.832 163.493 283.757 163.526 283.678 163.541C283.599 163.556 283.517 163.552 283.44 163.53V163.53Z" fill="#231F20"/>
<path d="M21.06 163.02H288C288 167.263 286.314 171.333 283.314 174.333C280.313 177.334 276.243 179.02 272 179.02H37C32.7565 179.02 28.6869 177.334 25.6863 174.333C22.6857 171.333 21 167.263 21 163.02H21.06Z" fill="white"/>
<path d="M272.03 179.45H37.03C32.6758 179.442 28.5024 177.708 25.4245 174.628C22.3466 171.548 20.6153 167.374 20.61 163.02C20.61 162.899 20.657 162.784 20.7412 162.698C20.8253 162.612 20.9397 162.562 21.06 162.56H288C288.121 162.562 288.237 162.612 288.322 162.697C288.408 162.783 288.457 162.898 288.46 163.02C288.455 167.376 286.722 171.552 283.642 174.632C280.562 177.712 276.386 179.444 272.03 179.45V179.45ZM21.53 163.45C21.6521 167.483 23.3393 171.31 26.2343 174.122C29.1293 176.933 33.0048 178.506 37.04 178.51H272.04C276.074 178.504 279.948 176.929 282.843 174.119C285.737 171.308 287.425 167.482 287.55 163.45H21.53Z" fill="#231F20"/>
<path d="M176.18 163.02H132.89V167.01H176.18V163.02Z" fill="black"/>
<path d="M66.9 55.0097C68.6839 55.0097 70.13 53.5636 70.13 51.7797C70.13 49.9958 68.6839 48.5497 66.9 48.5497C65.1162 48.5497 63.67 49.9958 63.67 51.7797C63.67 53.5636 65.1162 55.0097 66.9 55.0097Z" fill="#A00000"/>
<path d="M77.84 55.0097C79.6239 55.0097 81.07 53.5636 81.07 51.7797C81.07 49.9958 79.6239 48.5497 77.84 48.5497C76.0561 48.5497 74.61 49.9958 74.61 51.7797C74.61 53.5636 76.0561 55.0097 77.84 55.0097Z" fill="white"/>
<path d="M88.7901 55.0097C90.5739 55.0097 92.0201 53.5636 92.0201 51.7797C92.0201 49.9958 90.5739 48.5497 88.7901 48.5497C87.0062 48.5497 85.5601 49.9958 85.5601 51.7797C85.5601 53.5636 87.0062 55.0097 88.7901 55.0097Z" fill="white"/>
<path d="M119.66 101.19C119.443 101.191 119.228 101.149 119.027 101.067C118.826 100.985 118.644 100.863 118.49 100.71C118.183 100.397 118.012 99.9773 118.012 99.5397C118.012 99.1021 118.183 98.682 118.49 98.3697L131.03 85.8297C131.34 85.5208 131.761 85.3477 132.198 85.3486C132.636 85.3496 133.056 85.5244 133.365 85.8347C133.674 86.145 133.847 86.5654 133.846 87.0033C133.845 87.4412 133.67 87.8608 133.36 88.1697L120.82 100.71C120.668 100.862 120.487 100.983 120.288 101.065C120.089 101.147 119.875 101.19 119.66 101.19V101.19Z" fill="#00113C" fill-opacity="0.56"/>
<path d="M132.2 101.19C131.762 101.19 131.341 101.018 131.03 100.71L118.49 88.1697C118.18 87.8608 118.005 87.4412 118.004 87.0033C118.003 86.5654 118.176 86.145 118.485 85.8347C118.794 85.5244 119.214 85.3496 119.651 85.3486C120.089 85.3477 120.51 85.5208 120.82 85.8297L133.36 98.3697C133.591 98.5999 133.749 98.8936 133.814 99.2136C133.879 99.5336 133.847 99.8655 133.723 100.167C133.598 100.469 133.387 100.728 133.116 100.91C132.845 101.092 132.526 101.189 132.2 101.19V101.19Z" fill="#00113C" fill-opacity="0.56"/>
<path d="M176.92 101.19C176.593 101.191 176.272 101.095 176 100.914C175.727 100.733 175.515 100.474 175.389 100.172C175.264 99.8697 175.231 99.537 175.295 99.216C175.36 98.8951 175.518 98.6005 175.75 98.3697L188.29 85.8297C188.444 85.6767 188.626 85.5555 188.826 85.473C189.027 85.3904 189.242 85.3482 189.459 85.3486C189.675 85.3491 189.89 85.3923 190.09 85.4757C190.29 85.5591 190.472 85.6811 190.625 85.8347C190.778 85.9884 190.899 86.1706 190.982 86.3711C191.064 86.5716 191.107 86.7864 191.106 87.0033C191.106 87.2201 191.062 87.4347 190.979 87.6348C190.896 87.835 190.774 88.0167 190.62 88.1697L178.08 100.71C177.928 100.862 177.747 100.983 177.548 101.065C177.349 101.147 177.135 101.19 176.92 101.19V101.19Z" fill="#00113C" fill-opacity="0.56"/>
<path d="M189.41 101.19C189.193 101.191 188.978 101.149 188.777 101.067C188.576 100.985 188.394 100.863 188.24 100.71L175.7 88.1697C175.546 88.0167 175.424 87.835 175.341 87.6348C175.258 87.4347 175.214 87.2201 175.214 87.0033C175.213 86.7864 175.256 86.5716 175.338 86.3711C175.421 86.1706 175.542 85.9884 175.695 85.8347C175.848 85.6811 176.03 85.5591 176.23 85.4757C176.43 85.3923 176.645 85.3491 176.861 85.3486C177.078 85.3482 177.293 85.3904 177.494 85.473C177.694 85.5555 177.876 85.6767 178.03 85.8297L190.57 98.3697C190.801 98.5999 190.959 98.8936 191.024 99.2136C191.089 99.5336 191.057 99.8655 190.932 100.167C190.808 100.469 190.597 100.728 190.326 100.91C190.055 101.092 189.736 101.189 189.41 101.19Z" fill="#00113C" fill-opacity="0.56"/>
<path d="M251.07 60.1997H57.99C57.8574 60.1997 57.7302 60.147 57.6364 60.0533C57.5427 59.9595 57.49 59.8323 57.49 59.6997C57.49 59.5671 57.5427 59.4399 57.6364 59.3462C57.7302 59.2524 57.8574 59.1997 57.99 59.1997H251.07C251.203 59.1997 251.33 59.2524 251.424 59.3462C251.517 59.4399 251.57 59.5671 251.57 59.6997C251.57 59.8323 251.517 59.9595 251.424 60.0533C251.33 60.147 251.203 60.1997 251.07 60.1997Z" fill="white"/>
<path d="M97.51 129.44C97.0092 129.503 96.5031 129.374 96.0931 129.079C95.6832 128.785 95.3998 128.346 95.2999 127.851C95.1999 127.357 95.2907 126.842 95.5541 126.412C95.8175 125.981 96.234 125.666 96.72 125.53C115.002 117.755 134.664 113.747 154.53 113.747C174.396 113.747 194.058 117.755 212.34 125.53C212.586 125.633 212.81 125.785 212.997 125.975C213.185 126.165 213.334 126.39 213.434 126.637C213.535 126.885 213.586 127.15 213.585 127.417C213.583 127.684 213.529 127.948 213.425 128.195C213.321 128.441 213.17 128.664 212.98 128.852C212.79 129.04 212.565 129.188 212.317 129.289C212.07 129.39 211.805 129.441 211.538 129.439C211.271 129.438 211.006 129.383 210.76 129.28C192.977 121.72 173.853 117.823 154.53 117.823C135.207 117.823 116.083 121.72 98.3 129.28C98.0489 129.382 97.781 129.436 97.51 129.44V129.44Z" fill="#00113C" fill-opacity="0.56"/>
<path d="M70.3 94.0997H7.6C3.67878 94.0997 0.5 97.2785 0.5 101.2V134.86C0.5 138.781 3.67878 141.96 7.6 141.96H70.3C74.2212 141.96 77.4 138.781 77.4 134.86V101.2C77.4 97.2785 74.2212 94.0997 70.3 94.0997Z" fill="white"/>
<path d="M70.31 142.46H7.6C5.58517 142.457 3.65361 141.656 2.22891 140.231C0.804205 138.806 0.00264588 136.875 0 134.86V101.2C0.00264588 99.1849 0.804205 97.2533 2.22891 95.8286C3.65361 94.4039 5.58517 93.6024 7.6 93.5997H70.31C72.3248 93.6024 74.2564 94.4039 75.6811 95.8286C77.1058 97.2533 77.9074 99.1849 77.91 101.2V134.86C77.9074 136.875 77.1058 138.806 75.6811 140.231C74.2564 141.656 72.3248 142.457 70.31 142.46ZM7.6 94.5997C5.85038 94.6024 4.17318 95.2986 2.93602 96.5358C1.69885 97.7729 1.00264 99.4501 1 101.2V134.86C1.00264 136.609 1.69885 138.287 2.93602 139.524C4.17318 140.761 5.85038 141.457 7.6 141.46H70.31C72.0596 141.457 73.7368 140.761 74.974 139.524C76.2112 138.287 76.9074 136.609 76.91 134.86V101.2C76.9074 99.4501 76.2112 97.7729 74.974 96.5358C73.7368 95.2986 72.0596 94.6024 70.31 94.5997H7.6Z" fill="#D1D3D4"/>
<path d="M25.25 106.51H28.47C28.9634 106.496 29.455 106.574 29.92 106.74C30.2587 106.855 30.5666 107.047 30.82 107.3C31.0323 107.516 31.19 107.78 31.28 108.07C31.4534 108.603 31.4534 109.177 31.28 109.71C31.19 109.999 31.0323 110.263 30.82 110.48C30.5666 110.732 30.2587 110.924 29.92 111.04C29.455 111.205 28.9634 111.283 28.47 111.27H26.47V115.01H25.25V106.51ZM26.49 110.26H28.12C28.3612 110.26 28.6021 110.24 28.84 110.2C29.0593 110.173 29.2724 110.108 29.47 110.01C29.6557 109.914 29.8113 109.768 29.92 109.59C30.0314 109.373 30.0895 109.133 30.0895 108.89C30.0895 108.646 30.0314 108.406 29.92 108.19C29.8113 108.011 29.6557 107.866 29.47 107.77C29.2724 107.671 29.0593 107.607 28.84 107.58C28.6021 107.54 28.3612 107.52 28.12 107.52H26.49V110.26Z" fill="#031440"/>
<path d="M32.65 110.02C32.9821 109.733 33.3704 109.518 33.79 109.39C34.2062 109.252 34.6416 109.181 35.08 109.18C35.4687 109.172 35.8564 109.222 36.23 109.33C36.5199 109.42 36.7909 109.562 37.03 109.75C37.2284 109.915 37.3859 110.124 37.49 110.36C37.5882 110.584 37.6393 110.825 37.64 111.07V113.98C37.64 114.18 37.64 114.36 37.64 114.53C37.64 114.7 37.64 114.86 37.64 115.01H36.64C36.64 114.72 36.64 114.43 36.64 114.15C36.4093 114.488 36.0914 114.757 35.72 114.93C35.0798 115.166 34.3839 115.208 33.72 115.05C33.4748 114.983 33.2443 114.871 33.04 114.72C32.8484 114.58 32.6911 114.399 32.58 114.19C32.464 113.96 32.4057 113.706 32.41 113.45C32.3969 113.122 32.4918 112.799 32.68 112.53C32.8696 112.273 33.116 112.065 33.4 111.92C33.7404 111.752 34.1047 111.637 34.48 111.58C34.9136 111.514 35.3515 111.481 35.79 111.48H36.64V111.24C36.639 111.092 36.6084 110.946 36.55 110.81C36.4857 110.664 36.3941 110.531 36.28 110.42C36.1512 110.296 35.9979 110.201 35.83 110.14C35.6201 110.072 35.4006 110.038 35.18 110.04C34.9817 110.037 34.7838 110.057 34.59 110.1C34.4326 110.136 34.2787 110.186 34.13 110.25C34.0002 110.308 33.8763 110.378 33.76 110.46L33.44 110.69L32.65 110.02ZM35.92 112.27C35.6369 112.255 35.3532 112.255 35.07 112.27C34.8042 112.289 34.542 112.343 34.29 112.43C34.0721 112.496 33.8709 112.609 33.7 112.76C33.6267 112.833 33.5693 112.92 33.5314 113.017C33.4935 113.113 33.476 113.216 33.48 113.32C33.4705 113.457 33.4979 113.594 33.5594 113.717C33.621 113.841 33.7144 113.945 33.83 114.02C34.1352 114.188 34.4825 114.264 34.83 114.24C35.1075 114.246 35.3833 114.195 35.64 114.09C35.8381 114.006 36.0158 113.88 36.1608 113.722C36.3058 113.563 36.4147 113.375 36.48 113.17C36.5393 112.979 36.5697 112.78 36.57 112.58V112.22L35.92 112.27Z" fill="#031440"/>
<path d="M45.47 114.96C45.4755 115.366 45.3937 115.768 45.23 116.14C45.0757 116.497 44.8433 116.814 44.55 117.07C44.2414 117.34 43.8806 117.544 43.49 117.67C43.0496 117.822 42.5859 117.897 42.12 117.89C41.5748 117.893 41.0322 117.816 40.51 117.66C39.9972 117.495 39.5239 117.226 39.12 116.87L39.91 115.96C40.1987 116.248 40.5376 116.482 40.91 116.65C41.2939 116.806 41.7053 116.885 42.12 116.88C42.484 116.888 42.8466 116.831 43.19 116.71C43.4451 116.608 43.6766 116.455 43.87 116.26C44.0319 116.078 44.1514 115.863 44.22 115.63C44.2906 115.396 44.3277 115.154 44.33 114.91V114.12C44.1087 114.46 43.7922 114.728 43.42 114.89C43.0364 115.049 42.6252 115.13 42.21 115.13C41.7832 115.136 41.3591 115.061 40.96 114.91C40.591 114.772 40.2516 114.565 39.96 114.3C39.6825 114.029 39.4618 113.705 39.3107 113.348C39.1596 112.991 39.0812 112.608 39.08 112.22C39.0795 111.819 39.1541 111.423 39.3 111.05C39.4418 110.687 39.6585 110.357 39.9359 110.084C40.2132 109.81 40.5451 109.597 40.91 109.46C41.3208 109.299 41.759 109.221 42.2 109.23C42.6161 109.23 43.0279 109.315 43.41 109.48C43.7762 109.627 44.0947 109.873 44.33 110.19V110.19V109.37H45.49L45.47 114.96ZM42.29 110.19C42.0029 110.185 41.7178 110.236 41.45 110.34C41.2148 110.429 41.0004 110.565 40.82 110.74C40.6438 110.919 40.5075 111.134 40.42 111.37C40.3175 111.624 40.2665 111.896 40.27 112.17C40.2607 112.425 40.3048 112.68 40.3995 112.918C40.4942 113.155 40.6374 113.371 40.82 113.55C41.2362 113.886 41.755 114.069 42.29 114.069C42.8249 114.069 43.3437 113.886 43.76 113.55C43.944 113.372 44.0882 113.157 44.1831 112.919C44.2779 112.681 44.3211 112.426 44.31 112.17C44.3115 111.897 44.2641 111.626 44.17 111.37C44.0789 111.133 43.9392 110.919 43.76 110.74C43.5795 110.565 43.3651 110.429 43.13 110.34C42.8622 110.236 42.577 110.185 42.29 110.19V110.19Z" fill="#031440"/>
<path d="M48.11 112.56C48.1081 112.797 48.1666 113.031 48.28 113.24C48.3973 113.442 48.5537 113.619 48.74 113.76C48.9376 113.912 49.1613 114.027 49.4001 114.1C49.6522 114.18 49.9154 114.221 50.18 114.22C50.5094 114.227 50.8346 114.144 51.12 113.98C51.3978 113.817 51.6477 113.611 51.86 113.37L52.74 113.99C52.4037 114.374 51.9834 114.676 51.5118 114.872C51.0401 115.068 50.5297 115.153 50.02 115.12C49.5736 115.127 49.1295 115.053 48.71 114.9C48.3413 114.752 48.0025 114.539 47.71 114.27C47.4334 113.985 47.2219 113.644 47.09 113.27C46.9405 112.894 46.8658 112.494 46.87 112.09C46.8664 111.681 46.9481 111.275 47.11 110.9C47.264 110.545 47.4885 110.225 47.77 109.96C48.0573 109.684 48.3975 109.47 48.77 109.33C49.6198 109.003 50.5603 109.003 51.41 109.33C51.7639 109.494 52.0803 109.729 52.34 110.02C52.5791 110.315 52.756 110.655 52.86 111.02C52.9676 111.373 53.0216 111.74 53.02 112.11V112.49L48.11 112.56ZM51.78 111.7C51.7728 111.475 51.7324 111.253 51.66 111.04C51.5862 110.846 51.4739 110.669 51.3301 110.52C51.175 110.364 50.9871 110.244 50.78 110.17C50.5344 110.076 50.2728 110.032 50.01 110.04C49.7425 110.035 49.4769 110.086 49.23 110.19C49.0063 110.279 48.8024 110.412 48.63 110.58C48.4655 110.732 48.3329 110.916 48.24 111.12C48.1545 111.301 48.1101 111.499 48.11 111.7H51.78Z" fill="#031440"/>
<path d="M8.12 120.91H9.75L14.75 127.91V120.91H15.99V129.41H14.48L9.39 122.41V129.41H8.12V120.91Z" fill="#031440"/>
<path d="M17.82 126.57C17.8148 126.166 17.9003 125.766 18.07 125.4C18.2399 125.043 18.4738 124.721 18.76 124.45C19.0536 124.18 19.392 123.963 19.76 123.81C20.1689 123.655 20.6029 123.577 21.0401 123.58C21.4771 123.579 21.9107 123.657 22.32 123.81C22.6885 123.962 23.0271 124.179 23.32 124.45C23.6063 124.721 23.8402 125.043 24.01 125.4C24.1798 125.766 24.2653 126.166 24.26 126.57C24.2629 126.973 24.1776 127.373 24.01 127.74C23.8451 128.096 23.6105 128.416 23.32 128.68C23.0271 128.95 22.6885 129.167 22.32 129.32C21.912 129.477 21.4775 129.556 21.0401 129.55C20.6025 129.557 20.1676 129.479 19.76 129.32C19.392 129.166 19.0536 128.949 18.76 128.68C18.4696 128.416 18.235 128.096 18.07 127.74C17.9025 127.373 17.8172 126.973 17.82 126.57ZM19.06 126.57C19.0592 126.839 19.1066 127.107 19.2 127.36C19.2889 127.595 19.4251 127.809 19.6 127.99C19.7836 128.168 20.0013 128.307 20.24 128.4C20.7822 128.599 21.3779 128.599 21.92 128.4C22.1558 128.307 22.3701 128.168 22.55 127.99C22.7284 127.812 22.865 127.597 22.95 127.36C23.1365 126.846 23.1365 126.283 22.95 125.77C22.8625 125.534 22.7262 125.319 22.55 125.14C22.3696 124.965 22.1552 124.829 21.92 124.74C21.3779 124.54 20.7822 124.54 20.24 124.74C20.0019 124.828 19.7841 124.964 19.6 125.14C19.4272 125.322 19.2914 125.536 19.2 125.77C19.1059 126.026 19.0585 126.297 19.06 126.57Z" fill="#031440"/>
<path d="M29.08 124.66H27.41V127.24C27.41 127.4 27.41 127.56 27.41 127.71C27.4197 127.854 27.4535 127.996 27.51 128.13C27.5627 128.255 27.6538 128.36 27.77 128.43C27.9248 128.518 28.102 128.56 28.28 128.55C28.4232 128.559 28.5669 128.559 28.71 128.55C28.8494 128.528 28.9844 128.484 29.11 128.42V129.42C28.9393 129.499 28.757 129.549 28.57 129.57C28.4002 129.581 28.2299 129.581 28.06 129.57C27.7185 129.583 27.3779 129.526 27.06 129.4C26.8401 129.305 26.6524 129.149 26.52 128.95C26.3987 128.764 26.3264 128.551 26.31 128.33C26.31 128.103 26.31 127.873 26.31 127.64V124.64H24.92V123.7H26.27V122.12H27.43V123.71H29.1L29.08 124.66Z" fill="#031440"/>
<path d="M34.47 120.91H40.22V121.99H35.71V124.66H39.92V125.74H35.72V129.41H34.47V120.91Z" fill="#031440"/>
<path d="M41.3 126.57C41.2948 126.166 41.3802 125.766 41.55 125.4C41.7199 125.043 41.9538 124.721 42.24 124.45C42.533 124.179 42.8715 123.962 43.24 123.81C43.6494 123.657 44.083 123.579 44.52 123.58C44.9572 123.577 45.3912 123.655 45.8 123.81C46.168 123.963 46.5064 124.18 46.8 124.45C47.0863 124.721 47.3202 125.043 47.49 125.4C47.6598 125.766 47.7452 126.166 47.74 126.57C47.7429 126.973 47.6576 127.373 47.49 127.74C47.3251 128.096 47.0905 128.416 46.8 128.68C46.5064 128.949 46.168 129.166 45.8 129.32C45.3925 129.479 44.9576 129.557 44.52 129.55C44.0826 129.556 43.6481 129.477 43.24 129.32C42.8715 129.167 42.533 128.95 42.24 128.68C41.9496 128.416 41.715 128.096 41.55 127.74C41.3825 127.373 41.2971 126.973 41.3 126.57V126.57ZM42.54 126.57C42.5392 126.839 42.5866 127.107 42.68 127.36C42.7651 127.597 42.9017 127.812 43.08 127.99C43.2599 128.168 43.4743 128.307 43.71 128.4C44.2522 128.599 44.8478 128.599 45.39 128.4C45.6288 128.307 45.8465 128.168 46.03 127.99C46.205 127.809 46.3411 127.595 46.43 127.36C46.6165 126.846 46.6165 126.283 46.43 125.77C46.3387 125.536 46.2029 125.322 46.03 125.14C45.8459 124.964 45.6282 124.828 45.39 124.74C44.8478 124.54 44.2522 124.54 43.71 124.74C43.4749 124.829 43.2605 124.965 43.08 125.14C42.9039 125.319 42.7676 125.534 42.68 125.77C42.5859 126.026 42.5384 126.297 42.54 126.57Z" fill="#031440"/>
<path d="M54.7 129.41H53.54V128.53C53.3775 128.855 53.1096 129.116 52.78 129.27C52.3925 129.464 51.9633 129.56 51.53 129.55C51.239 129.552 50.9493 129.511 50.67 129.43C50.4146 129.344 50.1772 129.212 49.97 129.04C49.7586 128.852 49.5913 128.62 49.48 128.36C49.3508 128.043 49.2894 127.702 49.3 127.36V123.72H50.47V127.12C50.4607 127.351 50.4981 127.583 50.58 127.8C50.6487 127.974 50.7545 128.131 50.89 128.26C51.0209 128.374 51.1742 128.459 51.34 128.51C51.5085 128.561 51.6837 128.588 51.86 128.59C52.0911 128.59 52.3207 128.553 52.54 128.48C52.7418 128.405 52.9257 128.29 53.08 128.14C53.2385 127.966 53.3609 127.762 53.44 127.54C53.5339 127.266 53.578 126.979 53.57 126.69V123.72H54.73L54.7 129.41Z" fill="#031440"/>
<path d="M56.4601 123.72H57.62V124.6C57.785 124.276 58.0522 124.016 58.3801 123.86C58.7707 123.664 59.2034 123.568 59.6401 123.58C59.9244 123.579 60.2073 123.619 60.48 123.7C60.7408 123.78 60.9825 123.913 61.19 124.09C61.4022 124.277 61.5697 124.509 61.6801 124.77C61.8093 125.087 61.8706 125.427 61.8601 125.77V129.43H60.7001V126.07C60.7053 125.837 60.6646 125.606 60.5801 125.39C60.514 125.217 60.4077 125.063 60.2701 124.94C60.1397 124.823 59.9865 124.734 59.8201 124.68C59.6512 124.631 59.4759 124.607 59.3 124.61C59.0728 124.606 58.8465 124.64 58.6301 124.71C58.4236 124.785 58.2359 124.905 58.0801 125.06C57.9195 125.229 57.7968 125.43 57.7201 125.65C57.6309 125.924 57.587 126.211 57.59 126.5V129.43H56.4301L56.4601 123.72Z" fill="#031440"/>
<path d="M69.79 129.41H68.63V128.59C68.3947 128.907 68.0763 129.152 67.71 129.3C67.328 129.465 66.9162 129.55 66.5 129.55C66.06 129.558 65.6223 129.484 65.21 129.33C64.8374 129.185 64.4974 128.968 64.21 128.69C63.9397 128.418 63.7256 128.095 63.58 127.74C63.4293 127.368 63.3545 126.97 63.36 126.57C63.3547 126.162 63.4295 125.758 63.58 125.38C63.7234 125.027 63.9378 124.707 64.21 124.44C64.4957 124.162 64.8363 123.948 65.21 123.81C65.6203 123.648 66.059 123.569 66.5 123.58C66.9275 123.574 67.3509 123.663 67.74 123.84C68.0979 123.982 68.407 124.226 68.63 124.54V124.54V120.34H69.79V129.41ZM66.61 128.55C66.8971 128.554 67.1822 128.503 67.45 128.4C67.6857 128.307 67.9001 128.168 68.08 127.99C68.2584 127.812 68.395 127.597 68.48 127.36C68.6802 126.849 68.6802 126.281 68.48 125.77C68.3924 125.534 68.2561 125.319 68.08 125.14C67.8996 124.965 67.6851 124.829 67.45 124.74C66.9078 124.54 66.3122 124.54 65.77 124.74C65.5349 124.829 65.3205 124.965 65.14 125.14C64.9608 125.319 64.8211 125.533 64.73 125.77C64.5436 126.283 64.5436 126.846 64.73 127.36C64.8186 127.597 64.9586 127.813 65.14 127.99C65.3199 128.168 65.5343 128.307 65.77 128.4C66.0378 128.503 66.323 128.554 66.61 128.55V128.55Z" fill="#031440"/>
<path d="M295.6 68.9197H234.12C230.955 68.9197 228.39 71.4851 228.39 74.6497V96.0597C228.39 99.2243 230.955 101.79 234.12 101.79H295.6C298.765 101.79 301.33 99.2243 301.33 96.0597V74.6497C301.33 71.4851 298.765 68.9197 295.6 68.9197Z" fill="white"/>
<path d="M295.61 102.28H234.12C232.469 102.277 230.885 101.62 229.718 100.452C228.55 99.2842 227.893 97.7012 227.89 96.0497V74.6497C227.893 72.9982 228.55 71.4151 229.718 70.2473C230.885 69.0795 232.469 68.4223 234.12 68.4197H295.61C297.262 68.4223 298.845 69.0795 300.012 70.2473C301.18 71.4151 301.837 72.9982 301.84 74.6497V96.0497C301.837 97.7012 301.18 99.2842 300.012 100.452C298.845 101.62 297.262 102.277 295.61 102.28V102.28ZM234.12 69.4197C232.733 69.4197 231.403 69.9707 230.422 70.9515C229.441 71.9323 228.89 73.2626 228.89 74.6497V96.0497C228.89 97.4367 229.441 98.767 230.422 99.7478C231.403 100.729 232.733 101.28 234.12 101.28H295.61C296.997 101.28 298.327 100.729 299.308 99.7478C300.289 98.767 300.84 97.4367 300.84 96.0497V74.6497C300.84 73.2626 300.289 71.9323 299.308 70.9515C298.327 69.9707 296.997 69.4197 295.61 69.4197H234.12Z" fill="#D1D3D4"/>
<path d="M250.92 90.2897H242.32V87.2897L248.86 77.6597H254.52V87.2897H256.59V90.2897H254.52V93.0397H250.92V90.2897ZM250.92 87.2897V79.9497L245.92 87.2897H250.92Z" fill="#031440"/>
<path d="M257.59 85.3497C257.59 80.3497 260.59 77.3497 264.93 77.3497C269.27 77.3497 272.24 80.3497 272.24 85.3497C272.24 90.3497 269.24 93.3497 264.93 93.3497C260.62 93.3497 257.59 90.3397 257.59 85.3497ZM268.67 85.3497C268.67 81.9597 267.25 80.2897 264.93 80.2897C262.61 80.2897 261.16 81.9597 261.16 85.3497C261.16 88.7397 262.58 90.4097 264.93 90.4097C267.28 90.4097 268.67 88.7397 268.67 85.3497Z" fill="#031440"/>
<path d="M281.77 90.2897H273.13V87.2897L279.67 77.6597H285.34V87.2897H287.41V90.2897H285.34V93.0397H281.77V90.2897ZM281.77 87.2897V79.9497H281.72L276.72 87.2897H281.77Z" fill="#031440"/>
<path d="M47.1 31.7497C46.9948 31.7505 46.8924 31.7152 46.81 31.6497C46.7045 31.57 46.6341 31.4525 46.6136 31.3219C46.5931 31.1913 46.6241 31.0579 46.7 30.9497C48.49 28.4997 50.7 24.9497 49.05 22.1297C48.9992 22.0394 48.9424 21.9525 48.88 21.8697C47.0619 24.0658 44.9007 25.9535 42.48 27.4597C41.1992 28.3868 39.6236 28.8136 38.05 28.6597C37.7158 28.592 37.3989 28.4568 37.1187 28.2625C36.8384 28.0683 36.6007 27.8189 36.42 27.5297C36.1904 27.1156 36.0481 26.6588 36.0016 26.1876C35.9552 25.7164 36.0057 25.2407 36.15 24.7897C36.2326 24.4687 36.3396 24.1544 36.47 23.8497C34.3666 25.9535 31.9884 27.7633 29.4 29.2297C28.8406 29.5897 28.1849 29.771 27.52 29.7497C26.9859 29.6388 26.5021 29.3576 26.1415 28.9482C25.7808 28.5389 25.5627 28.0236 25.52 27.4797C25.4641 26.5062 25.6713 25.5355 26.12 24.6697C27.8796 20.8639 30.6079 17.5871 34.0318 15.167C37.4557 12.7469 41.4552 11.2685 45.63 10.8797C46.374 9.01261 46.476 6.95113 45.92 5.01971C45.6476 4.07917 45.1358 3.22539 44.4347 2.54181C43.7336 1.85823 42.8671 1.36823 41.92 1.1197C40.112 0.90417 38.2816 1.25348 36.68 2.1197C28.0596 6.04308 21.0135 12.758 16.68 21.1797C16.3439 21.7092 16.1637 22.3226 16.16 22.9497C16.1765 23.0911 16.2213 23.2277 16.2917 23.3514C16.3622 23.4751 16.4568 23.5834 16.57 23.6697C16.6283 23.7204 16.6971 23.7574 16.7715 23.7782C16.8459 23.799 16.9239 23.8029 17 23.7897C17.1326 23.7645 17.2698 23.793 17.3814 23.869C17.493 23.9449 17.5698 24.0621 17.595 24.1947C17.6202 24.3273 17.5917 24.4645 17.5157 24.5761C17.4398 24.6877 17.3226 24.7645 17.19 24.7897C16.9714 24.8392 16.7446 24.8407 16.5254 24.7941C16.3061 24.7475 16.0996 24.6539 15.92 24.5197C15.4831 24.1748 15.1993 23.672 15.13 23.1197C15.1031 22.2945 15.3224 21.4799 15.76 20.7797C20.2042 12.1448 27.4301 5.26068 36.27 1.2397C38.01 0.459704 40.06 -0.300295 42.1 0.119705C43.235 0.395751 44.2776 0.96501 45.1235 1.77053C45.9693 2.57604 46.5888 3.58957 46.92 4.7097C47.4922 6.71466 47.4187 8.84884 46.71 10.8097C47.37 10.8097 48.03 10.8097 48.71 10.8097C49.3525 10.8136 49.9843 10.975 50.55 11.2797C51.85 12.0897 51.92 13.8097 51.85 14.7597C51.6456 17.0124 50.8372 19.1681 49.51 20.9997C49.6613 21.1858 49.7983 21.383 49.92 21.5897C51.86 24.8897 49.48 28.8297 47.52 31.5097C47.4768 31.5826 47.4153 31.6431 47.3417 31.6852C47.2681 31.7272 47.1848 31.7495 47.1 31.7497ZM45.19 11.9197C41.2768 12.3713 37.5457 13.823 34.3563 16.1349C31.1669 18.4468 28.6266 21.5411 26.98 25.1197C26.6123 25.8255 26.4332 26.6143 26.46 27.4097C26.4794 27.7365 26.6037 28.0483 26.8145 28.2988C27.0253 28.5492 27.3113 28.7249 27.63 28.7997C28.093 28.7957 28.5448 28.6567 28.93 28.3997C33.04 26.1697 36.34 22.7097 39.52 19.3997C41.56 17.1197 43.85 14.7597 45.19 11.9197ZM44.36 19.9197C43.8496 19.9181 43.3403 19.9684 42.84 20.0697C41.5224 20.3052 40.2938 20.895 39.2861 21.7759C38.2784 22.6568 37.5296 23.7954 37.12 25.0697C37.0108 25.3963 36.9678 25.7414 36.9936 26.0848C37.0193 26.4282 37.1133 26.763 37.27 27.0697C37.3789 27.2475 37.5244 27.4001 37.6969 27.5173C37.8693 27.6345 38.0646 27.7138 38.27 27.7497C39.5727 27.8565 40.8716 27.5026 41.94 26.7497C44.326 25.2352 46.4419 23.3323 48.2 21.1197C47.1029 20.2719 45.746 19.8302 44.36 19.8697V19.9197ZM44.36 18.9197C45.9646 18.8753 47.5357 19.3837 48.81 20.3597C49.9595 18.7024 50.6496 16.7702 50.81 14.7597C50.81 14.1797 50.81 12.7597 49.98 12.2097C49.556 11.9937 49.0859 11.8839 48.61 11.8897C47.8407 11.8447 47.0694 11.8447 46.3 11.8897C44.97 15.0197 42.56 17.5897 40.39 19.8897C41.0962 19.5442 41.8416 19.2857 42.61 19.1197C43.1765 18.9768 43.7563 18.893 44.34 18.8697L44.36 18.9197Z" fill="#818181"/>
</svg>
