<svg width="432" height="365" viewBox="0 0 432 365" fill="none" xmlns="http://www.w3.org/2000/svg">
<g clip-path="url(#clip0)">
<path opacity="0.18" d="M422.77 223.94C415.15 238.3 401.35 249.51 397.52 265.32C395.87 272.14 396.25 279.32 395.4 286.27C392.4 310.72 374.07 331.1 352.22 342.65C351.3 343.15 350.37 343.65 349.45 344.07C335.1 351.07 319.57 354.89 303.73 357.28C294.1 358.71 284.36 359.62 274.73 360.39C234.523 363.563 194.26 364.72 153.94 363.86C134.46 363.46 114.59 362.54 96.27 356.07C95.33 355.75 94.4 355.4 93.47 355.07C78.61 349.3 65.41 339.82 53.73 328.97L53.19 328.47C35.77 312.19 21.36 292.47 12.05 270.56C-1.23417 239.204 -3.54215 204.281 5.50001 171.45C11.01 151.93 20.63 133.31 22.12 113.09C23.24 97.89 19.66 82.49 22.04 67.44C26.72 37.52 54.5 15.51 83.84 8.15C113.18 0.789999 144.05 4.92 174.01 9.15C188.64 11.24 205.77 16.82 220.26 12.35C238.07 6.87 253.04 0.04 272.26 0C280.1 0 288.09 0.82 295.26 4C303.96 7.8 310.86 14.7 317.93 21C337.66 38.68 360.16 53 380.32 70.2C400.48 87.4 418.76 108.29 426.18 133.72C429.81 146.15 430.7 159.22 431.09 172.16C431.64 189.84 431.07 208.32 422.77 223.94Z" fill="#68E1FD"/>
<path d="M320.72 117.77H116.21C107.429 117.77 100.31 124.889 100.31 133.67V270.17C100.31 278.951 107.429 286.07 116.21 286.07H320.72C329.501 286.07 336.62 278.951 336.62 270.17V133.67C336.62 124.889 329.501 117.77 320.72 117.77Z" fill="#BEBEBE"/>
<path d="M112.94 219.47C110.51 221.21 107.29 221.47 104.74 222.98C102.318 224.648 100.496 227.049 99.54 229.83C97.16 235.7 96.81 242.18 96.84 248.51C96.84 255.2 96.74 262.65 98.28 269.19C98.7 270.99 101.5 278.9 104.22 278.6C105.94 278.41 107.42 246.71 108.06 242.6C108.7 238.49 109.42 234.6 110.27 230.6C110.7 228.62 111.36 220.61 112.94 219.47Z" fill="url(#paint0_linear)"/>
<path d="M322.2 129.79H114.74V270.62H322.2V129.79Z" fill="white"/>
<path d="M250.7 274.56C250.84 271.56 251.46 268.07 249.39 265.88C248.361 264.99 247.197 264.271 245.94 263.75C243.846 262.593 242.059 260.952 240.728 258.963C239.397 256.975 238.561 254.697 238.29 252.32C238.03 249.77 238.44 247.19 238.29 244.62C238.06 239.38 235.66 234.48 232.87 230.03C230.08 225.58 226.87 221.39 224.61 216.64C224.14 215.64 223.82 214.23 224.73 213.64C225.64 213.05 226.87 213.88 227.67 214.64C236.34 223.55 245.94 231.78 256.94 237.49C260.34 239.26 263.89 240.78 267.04 242.96C272.28 246.6 276.18 251.96 279.04 257.64C281.9 263.32 283.73 269.51 285.58 275.64C286.26 277.88 286.93 280.32 286.14 282.52C285.937 283.203 285.497 283.791 284.9 284.18C284.326 284.455 283.696 284.592 283.06 284.58C275.06 285.02 266.99 285.03 258.94 285.13C256.94 285.13 254.57 285.6 252.94 284.19C250.64 282.15 250.57 277.29 250.7 274.56Z" fill="url(#paint1_linear)"/>
<path d="M146.34 155.33H140.16V211.89H146.34V155.33Z" fill="#68E1FD"/>
<path d="M157.1 164.58H150.92V211.89H157.1V164.58Z" fill="#BEBEBE"/>
<path d="M167.63 173.02H161.45V211.88H167.63V173.02Z" fill="#68E1FD"/>
<path d="M178.39 164.58H172.21V211.89H178.39V164.58Z" fill="#BEBEBE"/>
<path d="M188.93 183.6H182.75V211.88H188.93V183.6Z" fill="#BEBEBE"/>
<path d="M199.69 164.58H193.51V211.89H199.69V164.58Z" fill="#68E1FD"/>
<path d="M210.22 178.78H204.04V211.89H210.22V178.78Z" fill="#68E1FD"/>
<path d="M220.98 172.41H214.8V211.89H220.98V172.41Z" fill="#68E1FD"/>
<path d="M172.79 229.75H137.41V231.81H172.79V229.75Z" fill="#68E1FD"/>
<path d="M172.79 235.47H137.41V237.53H172.79V235.47Z" fill="#BEBEBE"/>
<path d="M172.79 241.19H137.41V243.25H172.79V241.19Z" fill="#68E1FD"/>
<path d="M172.79 246.92H137.41V248.98H172.79V246.92Z" fill="#BEBEBE"/>
<path d="M172.79 252.64H137.41V254.7H172.79V252.64Z" fill="#BEBEBE"/>
<path d="M264.67 151.61C258.57 151.591 252.713 153.997 248.386 158.297C244.06 162.597 241.619 168.44 241.6 174.54C241.581 180.64 243.987 186.497 248.287 190.824C252.587 195.15 258.43 197.591 264.53 197.61V189.61H264.44C261.427 189.612 258.482 188.72 255.976 187.048C253.47 185.376 251.516 182.998 250.362 180.215C249.208 177.432 248.905 174.37 249.491 171.415C250.078 168.46 251.528 165.745 253.657 163.614C255.787 161.483 258.501 160.032 261.455 159.443C264.41 158.855 267.472 159.156 270.256 160.308C273.039 161.461 275.419 163.413 277.093 165.918C278.767 168.422 279.66 171.367 279.66 174.38C279.663 175.11 279.609 175.838 279.5 176.56H287.59C287.65 175.893 287.68 175.243 287.68 174.61C287.68 171.589 287.085 168.597 285.928 165.806C284.772 163.015 283.077 160.479 280.94 158.343C278.803 156.207 276.266 154.513 273.475 153.358C270.683 152.203 267.691 151.609 264.67 151.61Z" fill="#68E1FD"/>
<path d="M357.24 77.24H299.52C295.223 77.24 291.74 80.7232 291.74 85.02V141.36C291.74 145.657 295.223 149.14 299.52 149.14H357.24C361.537 149.14 365.02 145.657 365.02 141.36V85.02C365.02 80.7232 361.537 77.24 357.24 77.24Z" fill="url(#paint2_linear)"/>
<path d="M416.32 181.66H358.6C354.303 181.66 350.82 185.143 350.82 189.44V245.78C350.82 250.077 354.303 253.56 358.6 253.56H416.32C420.617 253.56 424.1 250.077 424.1 245.78V189.44C424.1 185.143 420.617 181.66 416.32 181.66Z" fill="url(#paint3_linear)"/>
<path d="M117.5 26.41H59.78C55.4832 26.41 52 29.8933 52 34.19V90.53C52 94.8268 55.4832 98.31 59.78 98.31H117.5C121.797 98.31 125.28 94.8268 125.28 90.53V34.19C125.28 29.8933 121.797 26.41 117.5 26.41Z" fill="url(#paint4_linear)"/>
<path d="M96.18 134.2H38.46C34.1632 134.2 30.68 137.683 30.68 141.98V198.32C30.68 202.617 34.1632 206.1 38.46 206.1H96.18C100.477 206.1 103.96 202.617 103.96 198.32V141.98C103.96 137.683 100.477 134.2 96.18 134.2Z" fill="url(#paint5_linear)"/>
<path d="M110.08 208.63C111.487 207.813 113.14 207.525 114.74 207.82C115.637 208.152 116.418 208.738 116.986 209.507C117.555 210.276 117.886 211.195 117.94 212.15C118.029 214.045 117.611 215.93 116.73 217.61C113.81 223.97 108.55 228.99 105.3 235.18C103.279 239.033 102.074 243.261 101.76 247.6C101.44 252.12 101.59 257.6 97.67 259.91C94.89 261.5 91.16 260.42 88.9 258.14C86.64 255.86 85.55 252.69 84.8 249.58C82.7692 240.917 82.6966 231.91 84.5874 223.215C86.4782 214.521 90.2849 206.357 95.73 199.32C96.58 198.23 98.03 197.08 99.18 197.85C99.4821 198.125 99.7209 198.462 99.8797 198.839C100.039 199.215 100.114 199.622 100.1 200.03C100.34 202.41 99.18 211.13 101.23 212.69C103.48 214.34 107.63 209.79 110.08 208.63Z" fill="url(#paint6_linear)"/>
<path d="M97.09 348.91L98.78 335.41C97.93 342.21 97.1 349.01 96.25 355.82V356.07C95.31 355.75 94.38 355.4 93.45 355.07C78.59 349.3 65.39 339.82 53.71 328.97L53.17 328.47C55.65 318.29 58.49 308.18 61.33 298.11C65.81 282.2 69.33 263.94 80.01 251.34C81.74 249.34 85.01 249.94 87.53 250.84C90.05 251.74 92.79 252.84 95.37 253.84C97.0348 254.377 98.5169 255.367 99.65 256.7C100.72 258.2 100.84 260.15 100.91 262C102.074 291.026 100.796 320.098 97.09 348.91V348.91Z" fill="#031440" fill-opacity="0.8"/>
<path d="M352.22 342.65C351.3 343.15 350.37 343.65 349.45 344.07C335.1 351.07 319.57 354.89 303.73 357.28C295.18 338.92 286.2 319.6 274.29 303.39C270.29 297.95 266.21 293.26 263.73 286.87C261.87 282.09 259.2 275.87 258.73 270.8C258.28 265.37 262.22 262.6 266.15 259.43C275.018 252.268 285.299 247.061 296.32 244.15C297.265 243.783 298.309 243.758 299.27 244.08C300.097 244.576 300.745 245.322 301.12 246.21L331.94 302.51C338.75 314.94 345.57 327.39 351.25 340.38C351.57 341.15 351.94 341.89 352.22 342.65Z" fill="#031440" fill-opacity="0.8"/>
<path d="M245.63 255.56C243.25 251.37 244.86 246.14 244.58 241.32C244.1 233.32 238.39 226.78 233.98 220.08C232.05 217.16 230.28 213.85 230.57 210.36C230.67 209.11 231.31 207.65 232.57 207.53C233.138 207.517 233.698 207.67 234.18 207.97C236.154 208.986 237.934 210.34 239.44 211.97C241.19 213.86 243.08 216.34 245.64 216.04C246.679 215.813 247.666 215.392 248.55 214.8C251.94 212.98 255.82 212.37 259.62 211.8L264.46 211.05C268.39 210.44 272.46 209.84 276.31 210.67C278.513 211.162 280.592 212.098 282.42 213.423C284.248 214.747 285.786 216.43 286.94 218.37C290.34 224.15 289.94 231.37 291.94 237.74C292.74 240.24 293.94 242.62 294.59 245.16C295.412 247.684 295.255 250.426 294.15 252.84C292.61 255.71 289.31 257.18 286.15 257.89C282.99 258.6 279.63 258.76 276.62 260.01C274.07 261.06 271.88 262.82 269.48 264.16C263.87 267.29 261.74 264.58 256.64 262.43C252.69 260.77 247.94 259.55 245.63 255.56Z" fill="url(#paint7_linear)"/>
<path d="M254.95 157.87L254.13 157.66L267.77 105.23H292.37V106.08H268.43L254.95 157.87Z" fill="#68E1FD"/>
<path d="M350.19 226.48H300.93L277.49 185.82L278.22 185.39L301.42 225.63H350.19V226.48Z" fill="#68E1FD"/>
<path d="M171.81 164.71L144.78 79.9101H123.67V79.0601H145.39L145.49 79.3601L172.62 164.45L171.81 164.71Z" fill="#68E1FD"/>
<path d="M140.65 196.83L121.42 175.4H102.57V174.56H121.8L141.28 196.27L140.65 196.83Z" fill="#68E1FD"/>
<path d="M287.59 176.57C287.104 182.314 284.478 187.666 280.234 191.566C275.989 195.466 270.435 197.63 264.67 197.63H264.53V189.63C268.18 189.614 271.702 188.288 274.455 185.893C277.209 183.497 279.01 180.192 279.53 176.58L287.59 176.57Z" fill="#68E1FD"/>
<path d="M287.59 176.57C287.104 182.314 284.478 187.666 280.234 191.566C275.989 195.466 270.435 197.63 264.67 197.63H264.53V189.63C268.18 189.614 271.702 188.288 274.455 185.893C277.209 183.497 279.01 180.192 279.53 176.58L287.59 176.57Z" fill="url(#paint8_linear)"/>
</g>
<defs>
<linearGradient id="paint0_linear" x1="138.16" y1="256.12" x2="43.61" y2="233.6" gradientUnits="userSpaceOnUse">
<stop stop-opacity="0"/>
<stop offset="0.99"/>
</linearGradient>
<linearGradient id="paint1_linear" x1="15387.7" y1="18164.8" x2="19272.6" y2="18164.8" gradientUnits="userSpaceOnUse">
<stop stop-opacity="0"/>
<stop offset="0.99"/>
</linearGradient>
<linearGradient id="paint2_linear" x1="343.33" y1="-159.82" x2="321.91" y2="231.35" gradientUnits="userSpaceOnUse">
<stop offset="0.02" stop-color="white" stop-opacity="0"/>
<stop offset="0.14" stop-color="white" stop-opacity="0.06"/>
<stop offset="0.32" stop-color="white" stop-opacity="0.39"/>
<stop offset="0.68" stop-color="white" stop-opacity="0.68"/>
<stop offset="1" stop-color="white"/>
</linearGradient>
<linearGradient id="paint3_linear" x1="407.95" y1="-156.73" x2="386.54" y2="234.44" gradientUnits="userSpaceOnUse">
<stop offset="0.0197" stop-color="#646464"/>
<stop offset="0.0198" stop-color="white" stop-opacity="0.39"/>
<stop offset="0.0199" stop-color="white" stop-opacity="0.68"/>
<stop offset="0.02" stop-opacity="0"/>
<stop offset="0.0201" stop-color="#F0F0F0" stop-opacity="0.366708"/>
</linearGradient>
<linearGradient id="paint4_linear" x1="7648.94" y1="-15243.7" x2="6138.38" y2="12884.5" gradientUnits="userSpaceOnUse">
<stop offset="0.02" stop-color="white" stop-opacity="0"/>
<stop offset="0.32" stop-color="white" stop-opacity="0.39"/>
<stop offset="0.68" stop-color="white" stop-opacity="0.68"/>
<stop offset="1" stop-color="white"/>
</linearGradient>
<linearGradient id="paint5_linear" x1="6051.37" y1="-7136.33" x2="4540.81" y2="20991.9" gradientUnits="userSpaceOnUse">
<stop offset="0.02" stop-color="white" stop-opacity="0"/>
<stop offset="0.32" stop-color="white" stop-opacity="0.39"/>
<stop offset="0.68" stop-color="white" stop-opacity="0.68"/>
<stop offset="1" stop-color="white"/>
</linearGradient>
<linearGradient id="paint6_linear" x1="83.19" y1="229.08" x2="117.96" y2="229.08" gradientUnits="userSpaceOnUse">
<stop stop-color="#E5DCC5"/>
<stop offset="0.42" stop-color="#EAD4D1"/>
<stop offset="1" stop-color="#F0E9CB"/>
</linearGradient>
<linearGradient id="paint7_linear" x1="16347.6" y1="13989" x2="20517.6" y2="13989" gradientUnits="userSpaceOnUse">
<stop stop-color="#E5C5D5"/>
<stop offset="0.42" stop-color="#EAD4D1"/>
<stop offset="1" stop-color="#F0E9CB"/>
</linearGradient>
<linearGradient id="paint8_linear" x1="6696.42" y1="3663.26" x2="7492.28" y2="4867.91" gradientUnits="userSpaceOnUse">
<stop offset="0.02" stop-color="white" stop-opacity="0"/>
<stop offset="0.32" stop-color="white" stop-opacity="0.39"/>
<stop offset="0.68" stop-color="white" stop-opacity="0.68"/>
<stop offset="1" stop-color="white"/>
</linearGradient>
<clipPath id="clip0">
<rect width="431.25" height="364.11" fill="white"/>
</clipPath>
</defs>
</svg>
