<svg width="137" height="51" viewBox="0 0 137 51" fill="none" xmlns="http://www.w3.org/2000/svg">
<circle cx="25" cy="3" r="3" fill="white"/>
<circle cx="25" cy="48" r="3" fill="white"/>
<circle cx="43" cy="11" r="3" fill="white"/>
<circle cx="43" cy="40" r="3" fill="white"/>
<circle cx="8" cy="11" r="3" fill="white"/>
<circle cx="8" cy="40" r="3" fill="white"/>
<circle cx="3" cy="26" r="3" fill="white"/>
<circle cx="25" cy="11" r="2" fill="#DBDBDB"/>
<circle cx="35" cy="35" r="2" fill="#DBDBDB"/>
<circle cx="35" cy="15" r="2" fill="#DBDBDB"/>
<circle cx="30" cy="12" r="2" fill="white"/>
<circle cx="30" cy="38" r="2" fill="white"/>
<circle cx="34.5" cy="46.5" r="2.5" fill="#DBDBDB"/>
<circle cx="14.5" cy="46.5" r="2.5" fill="#DBDBDB"/>
<circle cx="4.5" cy="33.5" r="2.5" fill="#DBDBDB"/>
<circle cx="4.5" cy="18.5" r="2.5" fill="#DBDBDB"/>
<circle cx="14.5" cy="5.5" r="2.5" fill="#DBDBDB"/>
<circle cx="34.5" cy="5.5" r="2.5" fill="#DBDBDB"/>
<circle cx="12" cy="30" r="2" fill="white"/>
<circle cx="15" cy="15" r="2" fill="#DBDBDB"/>
<circle cx="20" cy="38" r="2" fill="white"/>
<circle cx="20" cy="12" r="2" fill="white"/>
<circle cx="11" cy="25" r="2" fill="#DBDBDB"/>
<circle cx="12" cy="20" r="2" fill="white"/>
<circle cx="15" cy="35" r="2" fill="#DBDBDB"/>
<circle cx="25" cy="39" r="2" fill="#DBDBDB"/>
<path d="M54.3184 30.1953C52.6842 30.1953 51.4928 29.5833 50.7441 28.3594H50.6758L50.7051 29.1797C50.7311 29.6615 50.7441 30.1888 50.7441 30.7617V34.8047H49.7773V19.3848H50.5977L50.7832 20.8984H50.8418C51.571 19.7526 52.7363 19.1797 54.3379 19.1797C55.7702 19.1797 56.8607 19.6517 57.6094 20.5957C58.3646 21.5332 58.7422 22.9004 58.7422 24.6973C58.7422 26.4421 58.3451 27.7962 57.5508 28.7598C56.763 29.7168 55.6855 30.1953 54.3184 30.1953ZM54.2988 29.3359C55.3861 29.3359 56.2259 28.9323 56.8184 28.125C57.4173 27.3177 57.7168 26.1882 57.7168 24.7363C57.7168 21.6178 56.5905 20.0586 54.3379 20.0586C53.1009 20.0586 52.1927 20.4004 51.6133 21.084C51.0339 21.7611 50.7441 22.8678 50.7441 24.4043V24.7168C50.7441 26.377 51.0208 27.5618 51.5742 28.2715C52.1341 28.9811 53.0423 29.3359 54.2988 29.3359ZM68.1367 30L67.8926 28.3203H67.8145C67.2806 29.0039 66.7305 29.4889 66.1641 29.7754C65.6042 30.0553 64.9401 30.1953 64.1719 30.1953C63.1302 30.1953 62.3197 29.9284 61.7402 29.3945C61.1608 28.8607 60.8711 28.1217 60.8711 27.1777C60.8711 26.1426 61.3008 25.3385 62.1602 24.7656C63.026 24.1927 64.276 23.89 65.9102 23.8574L67.9316 23.7988V23.0957C67.9316 22.0866 67.7266 21.3249 67.3164 20.8105C66.9062 20.2962 66.2454 20.0391 65.334 20.0391C64.3509 20.0391 63.332 20.3125 62.2773 20.8594L61.916 20.0195C63.0814 19.4727 64.2337 19.1992 65.373 19.1992C66.5384 19.1992 67.4076 19.502 67.9805 20.1074C68.5599 20.7129 68.8496 21.6569 68.8496 22.9395V30H68.1367ZM64.2305 29.3164C65.3633 29.3164 66.2552 28.9941 66.9062 28.3496C67.5638 27.6986 67.8926 26.7969 67.8926 25.6445V24.5996L66.0371 24.6777C64.5462 24.7493 63.4818 24.9837 62.8438 25.3809C62.2122 25.7715 61.8965 26.3835 61.8965 27.2168C61.8965 27.8809 62.0983 28.3984 62.502 28.7695C62.9121 29.1341 63.4883 29.3164 64.2305 29.3164ZM76.5352 30.1953C75.0182 30.1953 73.8301 29.7168 72.9707 28.7598C72.1113 27.8027 71.6816 26.4681 71.6816 24.7559C71.6816 22.998 72.1276 21.6309 73.0195 20.6543C73.9115 19.6712 75.1322 19.1797 76.6816 19.1797C77.5996 19.1797 78.4785 19.3392 79.3184 19.6582L79.0547 20.5176C78.1367 20.2116 77.3392 20.0586 76.6621 20.0586C75.36 20.0586 74.3737 20.4622 73.7031 21.2695C73.0326 22.0703 72.6973 23.2259 72.6973 24.7363C72.6973 26.1686 73.0326 27.2917 73.7031 28.1055C74.3737 28.9128 75.3112 29.3164 76.5156 29.3164C77.4792 29.3164 78.3743 29.1439 79.2012 28.7988V29.6973C78.5241 30.0293 77.6354 30.1953 76.5352 30.1953ZM86.0957 30.1953C84.5527 30.1953 83.3483 29.7201 82.4824 28.7695C81.623 27.819 81.1934 26.4876 81.1934 24.7754C81.1934 23.0827 81.61 21.7285 82.4434 20.7129C83.2767 19.6908 84.3997 19.1797 85.8125 19.1797C87.0625 19.1797 88.0488 19.6159 88.7715 20.4883C89.4941 21.3607 89.8555 22.5456 89.8555 24.043V24.8242H82.209C82.222 26.2826 82.5605 27.3958 83.2246 28.1641C83.8952 28.9323 84.8522 29.3164 86.0957 29.3164C86.7012 29.3164 87.2318 29.2741 87.6875 29.1895C88.1497 29.1048 88.7324 28.9225 89.4355 28.6426V29.5215C88.8366 29.7819 88.2832 29.9577 87.7754 30.0488C87.2676 30.1465 86.7077 30.1953 86.0957 30.1953ZM85.8125 20.0391C84.7904 20.0391 83.9701 20.3776 83.3516 21.0547C82.7331 21.7253 82.3717 22.6953 82.2676 23.9648H88.8301C88.8301 22.7344 88.5632 21.7741 88.0293 21.084C87.4954 20.3874 86.7565 20.0391 85.8125 20.0391ZM96.9648 19.1797C97.4141 19.1797 97.8958 19.2253 98.4102 19.3164L98.2246 20.2441C97.7819 20.1335 97.3229 20.0781 96.8477 20.0781C95.9427 20.0781 95.2005 20.4622 94.6211 21.2305C94.0417 21.9987 93.752 22.9688 93.752 24.1406V30H92.7852V19.3848H93.6055L93.7031 21.2988H93.7715C94.2077 20.5176 94.6732 19.9707 95.168 19.6582C95.6628 19.3392 96.2617 19.1797 96.9648 19.1797ZM99.6211 25.3809V23.8965H104.416V25.3809H99.6211ZM118.049 30H116.389V23.2812H108.869V30H107.209V15.7227H108.869V21.7969H116.389V15.7227H118.049V30ZM123.635 24.0625V30H121.975V15.7227H125.891C127.642 15.7227 128.934 16.0579 129.768 16.7285C130.607 17.3991 131.027 18.4082 131.027 19.7559C131.027 21.6439 130.07 22.9199 128.156 23.584L132.033 30H130.07L126.613 24.0625H123.635ZM123.635 22.6367H125.91C127.082 22.6367 127.941 22.4056 128.488 21.9434C129.035 21.4746 129.309 20.7747 129.309 19.8438C129.309 18.8997 129.029 18.2194 128.469 17.8027C127.915 17.3861 127.023 17.1777 125.793 17.1777H123.635V22.6367Z" fill="white"/>
</svg>
